<svg xmlns="http://www.w3.org/2000/svg" xmlns:xlink="http://www.w3.org/1999/xlink" viewBox="0 0 522.6 486.5">
  <defs>
    <clipPath id="clip-path">
      <rect y="141.8" width="522.6" height="287.98" fill="none"/>
    </clipPath>
  </defs>
  <title>logo_thinkdigital_wireframe</title>
  <g id="Layer_2" data-name="Layer 2">
    <g id="INTRO">
      <g clip-path="url(#clip-path)">
        <g>
          <path d="M178.9,304.9a23.1,23.1,0,0,0,6.7-4.7c1.9-2,3.2-3.1,4.3-5.7a21.6,21.6,0,0,0,0-16.3,21.2,21.2,0,0,0-4.5-6.8,23,23,0,0,0-6.8-4.7l-.9-.4a21.1,21.1,0,0,0-7.4-1.4H136.5l-7.9,41.8h42A19,19,0,0,0,178.9,304.9Z" fill="none" stroke="#cccccb" stroke-miterlimit="10" stroke-width="0.62"/>
          <path d="M229.6,261.8a65,65,0,0,0-13.7-20.7A72.5,72.5,0,0,0,195.7,227a84.1,84.1,0,0,0-14.1-4.8,16.4,16.4,0,0,0-4.5-.5H53.2L45,264.9H90.8l-7.9,41.8h45.7l7.9-41.8h33.8a21.1,21.1,0,0,1,7.4,1.4l.9.4a23,23,0,0,1,6.8,4.7,21.2,21.2,0,0,1,4.5,6.8,21.6,21.6,0,0,1,0,16.3c-1.1,2.6-2.4,3.7-4.3,5.7a23.1,23.1,0,0,1-6.7,4.7,19,19,0,0,1-8.3,1.8h-42l-8.3,44.4h50.6a58,58,0,0,0,24.9-5.3c7.8-3.5,14.7-9.5,20.5-15.4a67,67,0,0,0,13.6-20.7,56.8,56.8,0,0,0,4.7-23.3A62.5,62.5,0,0,0,229.6,261.8Z" fill="none" stroke="#cccccb" stroke-miterlimit="10" stroke-width="0.62"/>
          <g>
            <path d="M272.5,229.4v10.9h6.4V249h-6.4v21.1a7.9,7.9,0,0,0,.2,2.3,2.6,2.6,0,0,0,.6,1.4,1.9,1.9,0,0,0,1.2.7l1.7.2h1.7l1.3-.2v9l-3.1.8a20.2,20.2,0,0,1-3.8.3,15.9,15.9,0,0,1-5-.7,8.7,8.7,0,0,1-3.8-2.3,9.8,9.8,0,0,1-2.5-4.1,17.4,17.4,0,0,1-.8-6V249h-5.5v-8.7h5.5V229.4Z" fill="none" stroke="#cccccb" stroke-miterlimit="10" stroke-width="0.62"/>
            <path d="M295.4,245a13.4,13.4,0,0,1,4.4-3.5,12.3,12.3,0,0,1,5.5-1.2,15.3,15.3,0,0,1,5.4.9,12.5,12.5,0,0,1,4.2,3,13.3,13.3,0,0,1,2.7,5.3,26.9,26.9,0,0,1,1,8v27H306.1V257.4a16.9,16.9,0,0,0-.3-3.5,5.5,5.5,0,0,0-1.1-2.3,3.7,3.7,0,0,0-1.7-1.3,8.8,8.8,0,0,0-2.4-.3,5.3,5.3,0,0,0-3.1.8,6,6,0,0,0-2.1,2.1v31.6H282.9V221.7h12.5Z" fill="none" stroke="#cccccb" stroke-miterlimit="10" stroke-width="0.62"/>
            <rect x="324.5" y="240.3" width="12.5" height="44.23" fill="none" stroke="#cccccb" stroke-miterlimit="10" stroke-width="0.62"/>
            <path d="M354.7,240.3v5.2a14.1,14.1,0,0,1,4.9-3.9,14.9,14.9,0,0,1,11.2-.4,8.6,8.6,0,0,1,4,2.8,14.6,14.6,0,0,1,2.6,5.3,29.2,29.2,0,0,1,1,7.9v27.3H365.9V257.2a12.3,12.3,0,0,0-.4-3.6,6.4,6.4,0,0,0-1-2.2,3.9,3.9,0,0,0-1.7-1.1,8.8,8.8,0,0,0-2.4-.3,5.8,5.8,0,0,0-3,.8,6.4,6.4,0,0,0-2.2,2.4v31.3H342.7V240.3Z" fill="none" stroke="#cccccb" stroke-miterlimit="10" stroke-width="0.62"/>
            <path d="M399.4,267.5l-3.3,3.4v13.6H383.7V221.7h12.4v33.9l1.5-2.1,8.6-13.2h14.9l-13.8,18.2,15.1,26H408.1Z" fill="none" stroke="#cccccb" stroke-miterlimit="10" stroke-width="0.62"/>
          </g>
          <g>
            <path d="M281.5,327.5c0-7.2,1.3-11.9,3.9-15.5s6.5-5.3,11.5-5.3a12.1,12.1,0,0,1,5.2,1.1,13.8,13.8,0,0,1,4,3.3V288.2h12.5V351H307.3l-.6-4.5c-1.2,1.7-2.6,2.1-4.2,3.1a11.3,11.3,0,0,1-5.6,1.4c-5,0-8.9-1.8-11.5-5.5s-3.9-8.1-3.9-15.1Zm12.5,2.9a40,40,0,0,0,.3,5.3,6.1,6.1,0,0,0,1,2.8,5.6,5.6,0,0,0,2.1,2.2,6.8,6.8,0,0,0,3.1.6,5.8,5.8,0,0,0,3.3-.8,6.9,6.9,0,0,0,2.3-2.2V319.6a7.6,7.6,0,0,0-2.3-2.4,5.8,5.8,0,0,0-3.3-.8,6.2,6.2,0,0,0-3.1.7,4.5,4.5,0,0,0-2,2.1,10.8,10.8,0,0,0-1.1,3.7,30.4,30.4,0,0,0-.3,4.6Z" fill="none" stroke="#cccccb" stroke-miterlimit="10" stroke-width="0.62"/>
            <path d="M324.3,295.6a6,6,0,0,1,.5-2.4,5.3,5.3,0,0,1,1.3-2A6.2,6.2,0,0,1,328,290a7.6,7.6,0,0,1,2.7-.5,7.5,7.5,0,0,1,2.6.5,6.2,6.2,0,0,1,1.9,1.2,5.3,5.3,0,0,1,1.3,2,6,6,0,0,1,.5,2.4,6.6,6.6,0,0,1-.5,2.5,5.3,5.3,0,0,1-1.3,2,6.4,6.4,0,0,1-1.9,1.3,7.5,7.5,0,0,1-2.6.4,7.7,7.7,0,0,1-2.7-.4,6.4,6.4,0,0,1-1.9-1.3,5.3,5.3,0,0,1-1.3-2A6.6,6.6,0,0,1,324.3,295.6Z" fill="none" stroke="#cccccb" stroke-miterlimit="10" stroke-width="0.62"/>
            <rect x="324.5" y="306.8" width="12.5" height="44.23" fill="none" stroke="#cccccb" stroke-miterlimit="10" stroke-width="0.62"/>
            <path d="M341.5,327.5c0-7.2,1.4-11.9,4.2-15.5s6.7-5.3,11.8-5.3a13.2,13.2,0,0,1,5.9,1.2c1.6.9,3,1.3,4.1,2.8l.5-3.9h11.2V351a18.7,18.7,0,0,1-1.5,7.8,13.7,13.7,0,0,1-4,5.4,15.9,15.9,0,0,1-6.2,3.2,29,29,0,0,1-8.1,1l-3.7-.3a29.2,29.2,0,0,1-4-1,16.1,16.1,0,0,1-3.8-1.6,10.7,10.7,0,0,1-3.1-2.2l4.2-8.1a8.3,8.3,0,0,0,2,1.6,10.8,10.8,0,0,0,2.4,1.2l2.7.8,2.8.3a11.5,11.5,0,0,0,3.3-.4,5.5,5.5,0,0,0,2.5-1.3,4.8,4.8,0,0,0,1.5-2.5,16.1,16.1,0,0,0,.5-4.7v-3.5a11.3,11.3,0,0,1-4,3.2,12.1,12.1,0,0,1-5.2,1.1,16.2,16.2,0,0,1-6.8-1.4,13.1,13.1,0,0,1-5-4.1,18.1,18.1,0,0,1-3.1-6.7,26.3,26.3,0,0,1-1.1-8.4Zm12.4,2.9c0,4.1.6,6.3,1.7,8.2a6.1,6.1,0,0,0,5.5,2.8,8.9,8.9,0,0,0,3.4-.7,6.7,6.7,0,0,0,2.2-1.9V319.2a6.6,6.6,0,0,0-2.3-2.1,6.7,6.7,0,0,0-3.3-.7,5.9,5.9,0,0,0-5.4,2.8c-1.2,1.9-1.8,4.2-1.8,8.3Z" fill="none" stroke="#cccccb" stroke-miterlimit="10" stroke-width="0.62"/>
            <rect x="383.7" y="306.8" width="12.5" height="44.23" fill="none" stroke="#cccccb" stroke-miterlimit="10" stroke-width="0.62"/>
            <path d="M418.1,295.9v10.9h6.4v8.7h-6.4v21.9a13,13,0,0,0,.2,2.3,3.7,3.7,0,0,0,.7,1.4,1.9,1.9,0,0,0,1.1.7l1.8.2h1.6l1.3-.2v8.2l-3,.8a21.7,21.7,0,0,1-3.8.3,15.1,15.1,0,0,1-5-.7A10.9,10.9,0,0,1,409,348c-1.1-1.1-1.9-1.6-2.5-3.3a20.3,20.3,0,0,1-.8-6V315.5h-5.5v-8.7h5.5V295.9Z" fill="none" stroke="#cccccb" stroke-miterlimit="10" stroke-width="0.62"/>
            <path d="M450.3,351a7.6,7.6,0,0,1-.6-1.6c-.2-.6-.3-1.2-.5-1.8-.9,1.2-2.1,1.4-3.6,2.2a11.3,11.3,0,0,1-5.4,1.2,15.3,15.3,0,0,1-5.4-.9,14.8,14.8,0,0,1-4.4-2.7c-1.3-1.1-2.3-1.7-3-3.3a14.2,14.2,0,0,1-1.1-5.5,15.4,15.4,0,0,1,1.2-6.1,13.1,13.1,0,0,1,3.5-4.6,18.1,18.1,0,0,1,5.9-2.9,29.5,29.5,0,0,1,8.3-1h3.4v-2.9a6.8,6.8,0,0,0-1.1-4.2,4.1,4.1,0,0,0-3.2-1.2,4.5,4.5,0,0,0-3.5,1.3,5.6,5.6,0,0,0-1.1,3.8H427.2a12.6,12.6,0,0,1,1.2-5.5,13.7,13.7,0,0,1,3.5-4.5,18.1,18.1,0,0,1,5.5-3,20.8,20.8,0,0,1,7.3-1.1,26.9,26.9,0,0,1,6.5.8,15,15,0,0,1,5.2,2.6,11.3,11.3,0,0,1,3.4,4.6,16.2,16.2,0,0,1,1.2,6.6v18.9a32.8,32.8,0,0,0,.2,3.4,11.2,11.2,0,0,0,.3,2.7,14.2,14.2,0,0,0,.5,2.2l.8,1.8v.7Zm-7.4-8.3a8,8,0,0,0,3.6-.7,7.8,7.8,0,0,0,2.1-1.9v-9.2h-2.9a7.5,7.5,0,0,0-3.1.6,6,6,0,0,0-2.1,1.4,7.1,7.1,0,0,0-1.3,2.2,12.6,12.6,0,0,0-.4,2.7,5.6,5.6,0,0,0,1.1,3.7A3.8,3.8,0,0,0,442.9,342.7Z" fill="none" stroke="#cccccb" stroke-miterlimit="10" stroke-width="0.62"/>
            <path d="M479.5,351H467V288.2h12.5Z" fill="none" stroke="#cccccb" stroke-miterlimit="10" stroke-width="0.62"/>
          </g>
        </g>
        <line y1="221.7" x2="522.6" y2="221.7" fill="none" stroke="#cccccb" stroke-miterlimit="10" stroke-width="0.62"/>
        <line x1="522.6" y1="240.3" y2="240.3" fill="none" stroke="#cccccb" stroke-miterlimit="10" stroke-width="0.62"/>
        <line x1="522.6" y1="284.5" y2="284.5" fill="none" stroke="#cccccb" stroke-miterlimit="10" stroke-width="0.62"/>
        <line x1="522.6" y1="288.2" y2="288.2" fill="none" stroke="#cccccb" stroke-miterlimit="10" stroke-width="0.62"/>
        <line x1="522.6" y1="306.7" y2="306.7" fill="none" stroke="#cccccb" stroke-miterlimit="10" stroke-width="0.62"/>
        <line x1="522.6" y1="351" y2="351" fill="none" stroke="#cccccb" stroke-miterlimit="10" stroke-width="0.62"/>
        <line x1="522.6" y1="368.4" y2="368.4" fill="none" stroke="#cccccb" stroke-miterlimit="10" stroke-width="0.62"/>
        <line x1="306.1" y1="101.3" x2="306.1" y2="470.2" fill="none" stroke="#cccccb" stroke-miterlimit="10" stroke-width="0.62"/>
        <line x1="318.6" y1="101.3" x2="318.6" y2="470.2" fill="none" stroke="#cccccb" stroke-miterlimit="10" stroke-width="0.62"/>
        <line x1="324.5" y1="101.3" x2="324.5" y2="470.2" fill="none" stroke="#cccccb" stroke-miterlimit="10" stroke-width="0.62"/>
        <line x1="337" y1="101.3" x2="337" y2="470.2" fill="none" stroke="#cccccb" stroke-miterlimit="10" stroke-width="0.62"/>
        <line x1="383.6" y1="101.3" x2="383.6" y2="470.2" fill="none" stroke="#cccccb" stroke-miterlimit="10" stroke-width="0.62"/>
        <line x1="396.2" y1="101.3" x2="396.2" y2="470.2" fill="none" stroke="#cccccb" stroke-miterlimit="10" stroke-width="0.62"/>
        <line x1="2.7" y1="486.5" x2="95.5" y2="0.1" fill="none" stroke="#cccccb" stroke-miterlimit="10" stroke-width="0.62"/>
        <line x1="48.3" y1="486.5" x2="141" y2="0.1" fill="none" stroke="#cccccb" stroke-miterlimit="10" stroke-width="0.62"/>
        <line x1="94" y1="486.5" x2="186.8" y2="0.1" fill="none" stroke="#cccccb" stroke-miterlimit="10" stroke-width="0.62"/>
        <circle cx="169.9" cy="286.3" r="64.6" fill="none" stroke="#cccccb" stroke-miterlimit="10" stroke-width="0.62"/>
        <circle cx="171.1" cy="285.8" r="20.4" fill="none" stroke="#cccccb" stroke-miterlimit="10" stroke-width="1.2"/>
      </g>
    </g>
  </g>
</svg>
