<svg id="Layer_1" data-name="Layer 1" xmlns="http://www.w3.org/2000/svg" viewBox="0 0 1079.7 321.7">
  <title>logo_sdrt</title>
  <g>
    <g>
      <path d="M230.5,254.8v-42a139.7,139.7,0,0,0-41-98.8l-6.6,17.1,10.4,39.2a109.3,109.3,0,0,1,8.5,42.5v42l15.4,7.1Z" fill="#e9eaea"/>
      <rect x="201.8" y="213.3" width="28.6" height="32.92" fill="#d4d5d5"/>
      <path d="M271,73H230.5V32.5A32.5,32.5,0,0,0,198,0H105.5A32.4,32.4,0,0,0,73,32.5V90.6A140,140,0,0,0,212.8,230.5H271A32.6,32.6,0,0,0,303.5,198V105.5A32.5,32.5,0,0,0,271,73Zm3.8,125a3.8,3.8,0,0,1-3.8,3.8H212.8a109.3,109.3,0,0,1-42.5-8.5A111.2,111.2,0,0,1,101.6,90.6V32.5a3.8,3.8,0,0,1,3.9-3.9H198a3.8,3.8,0,0,1,3.8,3.9v69.1H271a3.8,3.8,0,0,1,3.8,3.9Z" fill="#8dc126"/>
      <path d="M101.6,85.1H73v5.5a139.1,139.1,0,0,0,2.9,28.2h29.4a111.3,111.3,0,0,1-3.7-28.2Z" fill="#86a329"/>
      <path d="M97.8,101.6a88.2,88.2,0,0,1,37.9,8c11.3,5.3,22.3,13.3,33.6,24.6a110.2,110.2,0,0,1,24,36.1L189.5,114c-26.2-26.2-54.7-41-91.7-41H32.5A32.4,32.4,0,0,0,0,105.5V198a32.5,32.5,0,0,0,32.5,32.5H73V271a32.5,32.5,0,0,0,32.5,32.5h76.3a48.7,48.7,0,0,0,48.7-48.7H201.8a20.1,20.1,0,0,1-20,20H105.5a3.8,3.8,0,0,1-3.9-3.8V201.8H32.5a3.8,3.8,0,0,1-3.9-3.8V105.5a3.8,3.8,0,0,1,3.9-3.9H97.8" fill="#e9eaea"/>
    </g>
    <circle cx="25.1" cy="278.3" r="25.1" transform="translate(-189.4 99.3) rotate(-45)" fill="#e9eaea"/>
    <circle cx="278.3" cy="25.1" r="25.1" fill="#8dc126"/>
    <path d="M403.6,256.1a110.5,110.5,0,0,1-36.4-25.2l25.3-31.2a85.4,85.4,0,0,0,26.3,20.2,76.3,76.3,0,0,0,13.6,4.8,55.4,55.4,0,0,0,13.2,1.6,44.9,44.9,0,0,0,16.9-2.9c4.6-2,8.1-4.6,10.3-7.9a20.7,20.7,0,0,0,3.4-11.7,22.1,22.1,0,0,0-1.5-8.4,21,21,0,0,0-4-6.4,28,28,0,0,0-7.5-5.5c-3.3-1.8-6.7-3.4-10.2-4.9s-8.1-3.1-13.9-5l-13.8-5.1c-4-1.6-8.3-3.6-13-6a128.1,128.1,0,0,1-12.2-7.1,72.1,72.1,0,0,1-10.1-8.7,47.7,47.7,0,0,1-8.2-10.7,59.7,59.7,0,0,1-5.2-13,62.2,62.2,0,0,1-1.9-15.8,55.4,55.4,0,0,1,9-30.7,62.8,62.8,0,0,1,24.8-21.9,78.1,78.1,0,0,1,34.6-8.3c25.7-.3,49.7,8.6,71.7,26.8l-24.3,31.8c-17.1-14-32.5-21-46.4-21-7.5,0-13.7,1.9-18.4,5.8s-7.1,9-7.2,15.6a16.5,16.5,0,0,0,1.4,7.2,19.4,19.4,0,0,0,4,5.8,30.1,30.1,0,0,0,7.4,5.3,98.5,98.5,0,0,0,9.8,4.8c3.3,1.4,7.7,3.2,13.2,5.3,17.8,7,29.6,12,35.3,15.1,13.3,7.3,22.2,16.2,26.6,26.8a61.6,61.6,0,0,1,4.1,23.2,65.8,65.8,0,0,1-4.6,24.7,55.3,55.3,0,0,1-12,18.6,76.1,76.1,0,0,1-17.3,12.6,82.8,82.8,0,0,1-20.3,7.4,95.2,95.2,0,0,1-21.3,2.3A107.1,107.1,0,0,1,403.6,256.1Zm138-207.3h70.5c16.6,0,31.8,2.6,45.6,7.9s25.5,12.6,35,21.9a95.9,95.9,0,0,1,22.1,33.8,117.8,117.8,0,0,1,7.9,43.3,120.1,120.1,0,0,1-7.6,43.1,94.6,94.6,0,0,1-21.5,33.6c-9.3,9.3-20.9,16.6-34.7,21.8s-29.1,7.7-46,7.7H541.6Zm68.7,175.5a73.6,73.6,0,0,0,28.1-5.3,62.9,62.9,0,0,0,21.8-14.4A65.4,65.4,0,0,0,674,182.8a75.4,75.4,0,0,0,4.9-27.1c0-13.2-2.8-25-8.5-35.6a62.1,62.1,0,0,0-23.5-24.7c-10-5.9-21.4-8.8-34-8.8H583.2V224.3Zm249.9,37.6L812.4,189H787.9v72.9H746.3V48.8h80.6c12.5,0,23.6,1.7,33.2,5.3s17.4,8.5,23.3,14.9a64.1,64.1,0,0,1,13.3,22.4,85,85,0,0,1,4.5,28.4q0,16.8-5.4,29.7A57.3,57.3,0,0,1,880.9,171a66.4,66.4,0,0,1-23.4,13v.6l52.6,77.3ZM787.9,151.8h29.6c12.8,0,22.7-3,29.6-8.9S857.5,129,857.5,119s-3.3-18.1-10-23.9-16.1-8.8-28.2-8.8H787.9Zm179-65.2H908.2V48.8H1068V86.6h-59.1V261.9h-42Z" fill="#8dc126"/>
    <g>
      <path d="M373,316.8a6.5,6.5,0,0,1-2.1-1.6l1.5-1.8.7.7.9.5.8.3h.8l1-.2a1,1,0,0,0,.6-.5,1.4,1.4,0,0,0,.2-.7.9.9,0,0,0-.1-.5.8.8,0,0,0-.2-.4l-.5-.3-.6-.3-.8-.3-.8-.3-.8-.4-.8-.4-.6-.5-.5-.6-.3-.8c0-.3-.1-.6-.1-1a3,3,0,0,1,.6-1.8,2.9,2.9,0,0,1,1.4-1.3,5.4,5.4,0,0,1,2.1-.5,6.4,6.4,0,0,1,4.3,1.6l-1.4,1.9a5.3,5.3,0,0,0-2.8-1.3,1.4,1.4,0,0,0-1.1.4,1.1,1.1,0,0,0-.5.9c0,.2.1.3.1.4l.3.4.4.3.6.3.8.3,2.1.9a4.1,4.1,0,0,1,1.6,1.6,3.2,3.2,0,0,1,.2,1.4,3.4,3.4,0,0,1-.2,1.5,3,3,0,0,1-.7,1.1l-1.1.8-1.2.4-1.3.2A7.4,7.4,0,0,1,373,316.8Z" fill="#d4d5d5"/>
      <path d="M396.3,316.8a6,6,0,0,1-2-1.4,7.7,7.7,0,0,1-1.4-2.1,8.6,8.6,0,0,1,0-5.2,7.7,7.7,0,0,1,1.4-2.1,4.6,4.6,0,0,1,2-1.3,6.2,6.2,0,0,1,2.7-.5,5.8,5.8,0,0,1,2.6.5,4.6,4.6,0,0,1,2,1.3,4.8,4.8,0,0,1,1.4,2,8.6,8.6,0,0,1,.5,2.7,7.6,7.6,0,0,1-.5,2.7,6,6,0,0,1-1.4,2.1,5.8,5.8,0,0,1-2,1.3,7.5,7.5,0,0,1-2.6.5A8.1,8.1,0,0,1,396.3,316.8Zm4.2-2.2a3.8,3.8,0,0,0,1.3-.9,5.7,5.7,0,0,0,.8-1.3,4.8,4.8,0,0,0-.2-3.8,3.4,3.4,0,0,0-1.4-1.5,3.6,3.6,0,0,0-2-.6,3.4,3.4,0,0,0-2,.6,4,4,0,0,0-1.4,1.5,4.7,4.7,0,0,0,0,4.2,2.9,2.9,0,0,0,1.4,1.5,3.4,3.4,0,0,0,2,.6A3.7,3.7,0,0,0,400.5,314.6Z" fill="#d4d5d5"/>
      <path d="M418.6,304.3h8.5v2.3h-6V310h5v2.3h-5v4.8h-2.5Z" fill="#d4d5d5"/>
      <path d="M442.6,306.6h-3.5v-2.3h9.6v2.3h-3.6v10.5h-2.5Z" fill="#d4d5d5"/>
      <path d="M478.2,304.3l-4,12.8h-2.4l-2.4-9.1h0l-2.5,9.1h-2.3l-4.1-12.8h2.7l2.5,8.7h.1l2.2-8.7h2.7L473,313h0l2.5-8.7Z" fill="#d4d5d5"/>
      <path d="M496.8,314.6h-4.9l-.8,2.5h-2.7l4.7-12.8h2.5l4.7,12.8h-2.6Zm-.7-2.2-1.7-5h0l-1.7,5Z" fill="#d4d5d5"/>
      <path d="M519.7,317.1l-2.9-4.4h-1.5v4.4h-2.4V304.3h4.8a6.4,6.4,0,0,1,2,.3,3.4,3.4,0,0,1,1.4.9,6.4,6.4,0,0,1,.8,1.4,4.7,4.7,0,0,1,.2,1.7,5.2,5.2,0,0,1-.3,1.8,3.8,3.8,0,0,1-.9,1.3,3.1,3.1,0,0,1-1.4.7h0l3.2,4.6Zm-4.4-6.6h1.8a3,3,0,0,0,1.8-.5,2,2,0,0,0,.6-1.5,1.8,1.8,0,0,0-.6-1.4,2.2,2.2,0,0,0-1.7-.5h-1.9Z" fill="#d4d5d5"/>
      <path d="M535.4,304.3h8.2v2.3h-5.7v3.1h4.5v2.2h-4.5v3H544v2.2h-8.6Z" fill="#d4d5d5"/>
      <path d="M572.5,304.3h4.3a7.6,7.6,0,0,1,2.7.5,7.4,7.4,0,0,1,2.1,1.3,5.3,5.3,0,0,1,1.3,2,7.5,7.5,0,0,1,.5,2.6,7.1,7.1,0,0,1-.4,2.6,5.8,5.8,0,0,1-1.3,2,5.7,5.7,0,0,1-2.1,1.3,6.4,6.4,0,0,1-2.8.5h-4.3Zm4.2,10.6a5.3,5.3,0,0,0,1.7-.4,3.3,3.3,0,0,0,2.1-2.1,4.8,4.8,0,0,0-.2-3.8,5,5,0,0,0-1.4-1.5,4.6,4.6,0,0,0-2.1-.5H575v8.3Z" fill="#d4d5d5"/>
      <path d="M596.5,304.3h8.2v2.3H599v3.1h4.5v2.2H599v3h6v2.2h-8.5Z" fill="#d4d5d5"/>
      <path d="M618.1,304.3h8.5v2.3h-6V310h5v2.3h-5v4.8h-2.5Z" fill="#d4d5d5"/>
      <path d="M639.5,304.3h2.6v12.8h-2.6Z" fill="#d4d5d5"/>
      <path d="M666.6,304.3v12.8H664l-5.7-8.5h0v8.5h-2.5V304.3h2.5L664,313h0v-8.7Z" fill="#d4d5d5"/>
      <path d="M680.2,304.3h8.1v2.3h-5.6v3.1h4.5v2.2h-4.5v3h6v2.2h-8.5Z" fill="#d4d5d5"/>
      <path d="M701.8,304.3H706a7.6,7.6,0,0,1,2.7.5,5.4,5.4,0,0,1,2.1,1.3,7.2,7.2,0,0,1,1.4,2,7.5,7.5,0,0,1,.4,2.6,7.1,7.1,0,0,1-.4,2.6,5.8,5.8,0,0,1-1.3,2,5.7,5.7,0,0,1-2.1,1.3,6.1,6.1,0,0,1-2.8.5h-4.2Zm4.1,10.6a4.7,4.7,0,0,0,1.7-.4,3.3,3.3,0,0,0,2.1-2.1,4.8,4.8,0,0,0-.2-3.8,4,4,0,0,0-1.4-1.5,4.6,4.6,0,0,0-2.1-.5h-1.7v8.3Z" fill="#d4d5d5"/>
      <path d="M748.1,317.1l-2.9-4.4h-1.5v4.4h-2.5V304.3h4.9a6.4,6.4,0,0,1,2,.3,3.4,3.4,0,0,1,1.4.9,6.4,6.4,0,0,1,.8,1.4,4.7,4.7,0,0,1,.2,1.7,5.2,5.2,0,0,1-.3,1.8,3.8,3.8,0,0,1-.9,1.3,3.1,3.1,0,0,1-1.4.7h0l3.2,4.6Zm-4.4-6.6h1.8a3,3,0,0,0,1.8-.5,2,2,0,0,0,.6-1.5,1.8,1.8,0,0,0-.6-1.4,2.2,2.2,0,0,0-1.7-.5h-1.9Z" fill="#d4d5d5"/>
      <path d="M763.8,304.3H772v2.3h-5.7v3.1h4.6v2.2h-4.6v3h6.1v2.2h-8.6Z" fill="#d4d5d5"/>
      <path d="M792.8,314.6h-5l-.8,2.5h-2.7l4.8-12.8h2.4l4.8,12.8h-2.7Zm-.8-2.2-1.7-5h0l-1.7,5Z" fill="#d4d5d5"/>
      <path d="M808.8,304.3h2.5v10.6H817v2.2h-8.2Z" fill="#d4d5d5"/>
      <path d="M847.9,306.6h-3.5v-2.3H854v2.3h-3.5v10.5h-2.6Z" fill="#d4d5d5"/>
      <path d="M866.8,304.3h2.6v12.8h-2.6Z" fill="#d4d5d5"/>
      <path d="M896,304.3v12.8h-2.5v-7.9h0l-3.1,5.5h-1.7l-3.1-5.5h0v7.9H883V304.3h2.6l3.9,7.3h.1l3.9-7.3Z" fill="#d4d5d5"/>
      <path d="M909.6,304.3h8.2v2.3h-5.7v3.1h4.6v2.2h-4.6v3h6.1v2.2h-8.6Z" fill="#d4d5d5"/>
      <path d="M946.8,304.3h2.5v5.6h5.2v-5.6h2.6v12.8h-2.6v-5h-5.2v5h-2.5Z" fill="#d4d5d5"/>
      <path d="M970.7,304.3h8.1v2.3h-5.6v3.1h4.5v2.2h-4.5v3h6v2.2h-8.5Z" fill="#d4d5d5"/>
      <path d="M999.6,314.6h-4.9l-.9,2.5h-2.6l4.7-12.8h2.5l4.7,12.8h-2.6Zm-.7-2.2-1.7-5h-.1l-1.7,5Z" fill="#d4d5d5"/>
      <path d="M1015.6,304.3h2.6v10.6h5.7v2.2h-8.3Z" fill="#d4d5d5"/>
      <path d="M1038.4,306.6h-3.6v-2.3h9.6v2.3h-3.5v10.5h-2.5Z" fill="#d4d5d5"/>
      <path d="M1057.2,304.3h2.5v5.6h5.2v-5.6h2.6v12.8h-2.6v-5h-5.2v5h-2.5Z" fill="#d4d5d5"/>
    </g>
  </g>
</svg>
